<?xml version="1.0" encoding="UTF-8"?>
<svg xmlns="http://www.w3.org/2000/svg" viewBox="0 0 310 80" width="310" height="80">
  <defs>
    <linearGradient id="fg" gradientUnits="userSpaceOnUse" x1="0" y1="0" x2="310" y2="0">
      <stop offset="0%"   stop-color="white"/>
      <stop offset="55%"  stop-color="#7DD3E8"/>
      <stop offset="100%" stop-color="#0891B2"/>
    </linearGradient>
  </defs>
  <g transform="translate(6,16) scale(0.188)">
    <path fill="url(#fg)" d="M250 138a12 12 0 0 1-24 0a94.11 94.11 0 0 0-94-94a84.09 84.09 0 0 0-84 84a74.09 74.09 0 0 0 74 74a64.07 64.07 0 0 0 64-64a54.06 54.06 0 0 0-54-54a44.05 44.05 0 0 0-44 44a34 34 0 0 0 34 34a24 24 0 0 0 24-24a14 14 0 0 0-14-14a4 4 0 0 0-2.82 1.17A12 12 0 0 1 124 148a20 20 0 0 1-20-20a28 28 0 0 1 28-28a38 38 0 0 1 38 38a48.05 48.05 0 0 1-48 48a58.07 58.07 0 0 1-58-58a68.07 68.07 0 0 1 68-68a78.09 78.09 0 0 1 78 78a88.1 88.1 0 0 1-88 88a98.11 98.11 0 0 1-98-98A108.12 108.12 0 0 1 132 20a118.13 118.13 0 0 1 118 118"/>
  </g>
  <text x="70" y="50"
    font-family="'Segoe UI','SF Pro Display',-apple-system,sans-serif"
    font-size="46" font-weight="800" letter-spacing="-1.8"
    fill="url(#fg)">Cy-Sec</text>
  <text x="72" y="68"
    font-family="'Segoe UI','SF Pro Display',-apple-system,sans-serif"
    font-size="11.5" font-weight="400" letter-spacing="0.2"
    fill="rgba(255,255,255,0.45)">Awareness and Consultancy Ltd</text>
</svg>
